<svg height="512pt" viewBox="0 -30 512 511" width="512pt" xmlns="http://www.w3.org/2000/svg"><path d="m271 182.261719v-22.761719c0-24.839844 20.207031-45.046875 45.046875-45.046875 41.382813 0 75.050781-33.667969 75.050781-75.050781v-38.902344h-30v38.902344c0 24.839844-20.210937 45.050781-45.050781 45.050781-41.378906 0-75.046875 33.664063-75.046875 75.046875v22.761719h-241v270.191406h512v-270.191406zm-180.132812 120.09375v30h-30.023438v-30zm-30.023438-30.046875v-30h30.023438v30zm30.023438 90.09375v30h-30.023438v-30zm60.046874-60.046875v30h-30.023437v-30zm-30.023437-30.046875v-30h30.023437v30zm30.023437 90.09375v30h-30.023437v-30zm60.050782-60.046875v30h-30.023438v-30zm-30.023438-30.046875v-30h30.023438v30zm150.117188 90.09375v30h-150.117188v-30zm-60.046875-60.046875v30h-30.023438v-30zm-30.023438-30.046875v-30h30.023438v30zm90.070313 30.046875v30h-30.023438v-30zm-30.023438-30.046875v-30h30.023438v30zm90.074219 30.046875v30h-30.023437v-30zm-30.023437-30.046875v-30h30.023437v30zm90.070312 90.09375v30h-90.070312v-30zm0-60.046875v30h-30.023438v-30zm-30.023438-30.046875v-30h30.023438v30zm0 0"/></svg>